<svg xmlns="http://www.w3.org/2000/svg" viewBox="0 0 317.62 294.11"><defs><style>.cls-1{fill:#126587;}.cls-1,.cls-2{fill-rule:evenodd;}.cls-2{fill:#3ab48f;}</style></defs><title>我想要的2021</title><g id="路径-472"><polyline class="cls-1" points="154.43 95.86 149.05 111.26 169.09 261.89 163.21 261.68 140.36 78.47 144.76 74.98 148.66 102.16 154.98 80.26 158.59 80.38 154.51 93.55"/></g><g id="路径-465"><path class="cls-2" d="M84,53.21c-17.11,16-24.92,33.42-30.31,47.88,10.82,12.91,89.8,31.36,92.09-34.39a36.91,36.91,0,0,0-1.35-11.38C138.65,43.37,101.15,37.22,84,53.21Z"/></g><g id="路径-465-2" data-name="路径-465"><path class="cls-1" d="M178.78,74.3c6.24-9.24,8.61-17.5,8.66-27.71-8.15-6.52-43.83,8.18-41.13,31.39.79,3,3,6.21,5.73,7.21C158,86,174.17,80.83,178.78,74.3Z"/></g><g id="路径-469"><polygon class="cls-1" points="215.32 153.33 201.64 203.45 205.59 200 218.53 153.45 215.32 153.33"/></g><g id="路径-471"><polygon class="cls-1" points="181.69 137.41 174.23 242.7 179.01 238.02 180.1 241.82 174.06 247.58 172.85 262.02 169.09 261.89 178.13 151.21 173.38 145.18 174.35 143.51 178.41 147.6 179.24 136.9 181.69 137.41"/></g><g id="路径-465-3" data-name="路径-465"><path class="cls-2" d="M142.25,150c-15.59-7.63-27.16-9.93-38.59-9.82-6,11,2.19,70.78,48.24,54.85.54-.19,2.11-.75,3.19-1.19C158.64,188.94,157.85,157.64,142.25,150Z"/></g><g id="路径-465-4" data-name="路径-465"><path class="cls-2" d="M210.43,95.38c-3.07-14.18-7-21.87-19.89-30.28-14.84,8.28-38.73,69.38,3.42,84.44C209.55,152.14,214.47,117.45,210.43,95.38Z"/></g><g id="路径-466"><path class="cls-1" d="M248.37,140.63c-.63-7.8-20.69-30.24-54.79-7.48Q179.46,144,185,151.47q16,8.94,28.17,5.76c11.29-4.38,9.13-7.95,21.46-13.76C239.87,141,252.76,141.7,248.37,140.63Z"/></g><g id="路径-467"><path class="cls-1" d="M207.75,198.6q-4.74-32.28,28.44-42.82c15.3-4.62,35.74,1.54,41.75,31.63-27.68-1-44.61.44-54.35,3.76A67.7,67.7,0,0,0,207.75,198.6Z"/></g><g id="路径-467-2" data-name="路径-467"><path class="cls-2" d="M206.87,198.57q.34-26.32,33.93-36.81c16.29-4.27,31-4.24,37.14,25.71-28-1-45.17.42-55,3.72A68.83,68.83,0,0,0,206.87,198.57Z"/></g><g id="路径-468"><path class="cls-2" d="M158.08,172.16c2.35-16.83,14.54-23.95,27.88-18.18,15.21,5.42,18.31,65.1-12.1,78.85C155.76,215.08,155.14,193.14,158.08,172.16Z"/></g></svg>